<svg xmlns="http://www.w3.org/2000/svg" width="48" height="48" viewBox="0 0 256 256" fill="none" id="my-svg">
  <defs><pattern id="a" patternUnits="userSpaceOnUse" width="80" height="80" patternTransform="scale(3.19) rotate(0)"><rect x="0" y="0" width="100%" height="100%" fill="hsla(0,0%,100%,1)"/><path d="M-20.133 4.568C-13.178 4.932-6.452 7.376 0 10c6.452 2.624 13.036 5.072 20 5 6.967-.072 13.56-2.341 20-5 6.44-2.659 13.033-4.928 20-5 6.964-.072 13.548 2.376 20 5s13.178 5.068 20.133 5.432" stroke-width="30" stroke="hsla(189, 100%, 48%, 1)" fill="none"/><path d="M-20.133 24.568C-13.178 24.932-6.452 27.376 0 30c6.452 2.624 13.036 5.072 20 5 6.967-.072 13.56-2.341 20-5 6.44-2.659 13.033-4.928 20-5 6.964-.072 13.548 2.376 20 5s13.178 5.068 20.133 5.432" stroke-width="30" stroke="hsla(208, 100%, 48%, 1)" fill="none"/><path d="M-20.133 44.568C-13.178 44.932-6.452 47.376 0 50c6.452 2.624 13.036 5.072 20 5 6.967-.072 13.56-2.341 20-5 6.44-2.659 13.033-4.928 20-5 6.964-.072 13.548 2.376 20 5s13.178 5.068 20.133 5.432" stroke-width="30" stroke="hsla(279, 100%, 50%, 1)" fill="none"/><path d="M-20.133 64.568C-13.178 64.932-6.452 67.376 0 70c6.452 2.624 13.036 5.072 20 5 6.967-.072 13.56-2.341 20-5 6.44-2.659 13.033-4.928 20-5 6.964-.072 13.548 2.376 20 5s13.178 5.068 20.133 5.432" stroke-width="30" stroke="hsla(265, 100%, 50%, 1)" fill="none"/></pattern>
    <linearGradient id="gradient1">
      <stop class="stop1" offset="0%" stop-color="#8f66ff"/>
      <stop class="stop2" offset="100%" stop-color="#3d12ff"/>
    </linearGradient>
  </defs>
  
  <g id="group" transform="translate(0,0) scale(1)">
    <path d="M106.667 117.333C106.667 111.442 111.442 106.667 117.333 106.667C123.225 106.667 128.000 111.442 128.000 117.333C128.000 123.225 123.225 128.000 117.333 128.000C111.442 128.000 106.667 123.225 106.667 117.333Z" fill="url(#a)" stroke-width="14" id="filled" stroke="none" stroke-linecap="round" stroke-linejoin="round"/>
    <path fill-rule="evenodd" clip-rule="evenodd" d="M52.457 41.791C57.955 36.294 65.864 32.000 74.667 32.000H160.000C168.802 32.000 176.713 36.294 182.209 41.791C187.707 47.288 192.000 55.198 192.000 64.000V192.000C192.000 200.802 187.707 208.713 182.209 214.209C176.713 219.707 168.802 224.000 160.000 224.000H74.667C65.864 224.000 57.955 219.707 52.457 214.209C46.961 208.713 42.667 200.802 42.667 192.000V64.000C42.667 55.198 46.961 47.288 52.457 41.791ZM117.333 85.333C99.660 85.333 85.333 99.660 85.333 117.333C85.333 124.036 87.394 130.257 90.917 135.398C87.763 137.373 84.662 139.932 82.004 143.253C77.425 148.977 74.667 156.352 74.667 165.333C74.667 171.225 79.442 176.000 85.333 176.000C91.224 176.000 96.000 171.225 96.000 165.333C96.000 160.981 97.242 158.356 98.663 156.580C100.217 154.637 102.530 153.057 105.436 151.846C108.332 150.639 111.377 149.985 113.801 149.649C114.985 149.484 115.954 149.405 116.592 149.366C116.910 149.347 117.140 149.340 117.270 149.335L117.333 149.334L117.396 149.335C117.526 149.340 117.757 149.347 118.075 149.366C118.713 149.405 119.682 149.484 120.866 149.649C123.290 149.985 126.335 150.639 129.231 151.846C132.137 153.057 134.449 154.637 136.004 156.580C137.425 158.356 138.667 160.981 138.667 165.333C138.667 171.225 143.442 176.000 149.333 176.000C155.225 176.000 160.000 171.225 160.000 165.333C160.000 156.352 157.242 148.977 152.662 143.253C150.005 139.932 146.903 137.373 143.750 135.398C147.273 130.257 149.333 124.036 149.333 117.333C149.333 99.660 135.007 85.333 117.333 85.333Z" fill="url(#a)" stroke-width="14" id="filled" stroke="none" stroke-linecap="round" stroke-linejoin="round"/>
    <path d="M213.333 53.333C219.225 53.333 224.000 58.109 224.000 64.000V85.333C224.000 91.224 219.225 96.000 213.333 96.000C207.442 96.000 202.667 91.224 202.667 85.333V64.000C202.667 58.109 207.442 53.333 213.333 53.333Z" fill="url(#a)" stroke-width="14" id="filled" stroke="none" stroke-linecap="round" stroke-linejoin="round"/>
    <path d="M224.000 117.333C224.000 111.442 219.225 106.667 213.333 106.667C207.442 106.667 202.667 111.442 202.667 117.333V138.667C202.667 144.558 207.442 149.333 213.333 149.333C219.225 149.333 224.000 144.558 224.000 138.667V117.333Z" fill="url(#a)" stroke-width="14" id="filled" stroke="none" stroke-linecap="round" stroke-linejoin="round"/>
    <path d="M213.333 160.000C219.225 160.000 224.000 164.775 224.000 170.667V192.000C224.000 197.891 219.225 202.667 213.333 202.667C207.442 202.667 202.667 197.891 202.667 192.000V170.667C202.667 164.775 207.442 160.000 213.333 160.000Z" fill="url(#a)" stroke-width="14" id="filled" stroke="none" stroke-linecap="round" stroke-linejoin="round"/>
  </g>
</svg>