<svg xmlns="http://www.w3.org/2000/svg" width="48" height="48" viewBox="0 0 256 256" fill="none" id="my-svg">
  <defs><pattern id="a" patternUnits="userSpaceOnUse" width="80" height="80" patternTransform="scale(3.19) rotate(0)"><rect x="0" y="0" width="100%" height="100%" fill="hsla(0,0%,100%,1)"/><path d="M-20.133 4.568C-13.178 4.932-6.452 7.376 0 10c6.452 2.624 13.036 5.072 20 5 6.967-.072 13.56-2.341 20-5 6.44-2.659 13.033-4.928 20-5 6.964-.072 13.548 2.376 20 5s13.178 5.068 20.133 5.432" stroke-width="30" stroke="hsla(189, 100%, 48%, 1)" fill="none"/><path d="M-20.133 24.568C-13.178 24.932-6.452 27.376 0 30c6.452 2.624 13.036 5.072 20 5 6.967-.072 13.56-2.341 20-5 6.44-2.659 13.033-4.928 20-5 6.964-.072 13.548 2.376 20 5s13.178 5.068 20.133 5.432" stroke-width="30" stroke="hsla(208, 100%, 48%, 1)" fill="none"/><path d="M-20.133 44.568C-13.178 44.932-6.452 47.376 0 50c6.452 2.624 13.036 5.072 20 5 6.967-.072 13.56-2.341 20-5 6.44-2.659 13.033-4.928 20-5 6.964-.072 13.548 2.376 20 5s13.178 5.068 20.133 5.432" stroke-width="30" stroke="hsla(279, 100%, 50%, 1)" fill="none"/><path d="M-20.133 64.568C-13.178 64.932-6.452 67.376 0 70c6.452 2.624 13.036 5.072 20 5 6.967-.072 13.56-2.341 20-5 6.44-2.659 13.033-4.928 20-5 6.964-.072 13.548 2.376 20 5s13.178 5.068 20.133 5.432" stroke-width="30" stroke="hsla(265, 100%, 50%, 1)" fill="none"/></pattern>
    <linearGradient id="gradient1">
      <stop class="stop1" offset="0%" stop-color="#8f66ff"/>
      <stop class="stop2" offset="100%" stop-color="#3d12ff"/>
    </linearGradient>
  </defs>
      
  <g id="group" transform="translate(0,0) scale(1)">
    <path fill-rule="evenodd" clip-rule="evenodd" d="M62.434 21.447C57.285 22.205 53.333 26.641 53.333 32.000V192.000C53.333 196.591 56.271 200.668 60.627 202.119L156.627 234.119C159.879 235.203 163.455 234.658 166.237 232.653C169.019 230.649 170.667 227.428 170.667 224.000V64.000C170.667 62.822 170.474 61.678 170.112 60.603L62.434 21.447ZM138.667 138.667C138.667 132.775 133.891 128.000 128.000 128.000C122.109 128.000 117.333 132.775 117.333 138.667V149.333C117.333 155.225 122.109 160.000 128.000 160.000C133.891 160.000 138.667 155.225 138.667 149.333V138.667Z" fill="url(#a)" stroke-width="14" id="filled" stroke="none" stroke-linecap="round" stroke-linejoin="round"/>
    <path d="M192.000 202.667C197.891 202.667 202.667 197.891 202.667 192.000V32.000C202.667 26.109 197.891 21.333 192.000 21.333H124.545L184.979 43.309C189.195 44.842 192.000 48.848 192.000 53.334V202.667Z" fill="url(#a)" stroke-width="14" id="filled" stroke="none" stroke-linecap="round" stroke-linejoin="round"/>
  </g>
</svg>