<svg xmlns="http://www.w3.org/2000/svg" width="48" height="48" viewBox="0 0 256 256" fill="none" id="my-svg">
  <defs><pattern id="a" patternUnits="userSpaceOnUse" width="80" height="80" patternTransform="scale(3.19) rotate(0)"><rect x="0" y="0" width="100%" height="100%" fill="hsla(0,0%,100%,1)"/><path d="M-20.133 4.568C-13.178 4.932-6.452 7.376 0 10c6.452 2.624 13.036 5.072 20 5 6.967-.072 13.56-2.341 20-5 6.44-2.659 13.033-4.928 20-5 6.964-.072 13.548 2.376 20 5s13.178 5.068 20.133 5.432" stroke-width="30" stroke="hsla(189, 100%, 48%, 1)" fill="none"/><path d="M-20.133 24.568C-13.178 24.932-6.452 27.376 0 30c6.452 2.624 13.036 5.072 20 5 6.967-.072 13.56-2.341 20-5 6.44-2.659 13.033-4.928 20-5 6.964-.072 13.548 2.376 20 5s13.178 5.068 20.133 5.432" stroke-width="30" stroke="hsla(208, 100%, 48%, 1)" fill="none"/><path d="M-20.133 44.568C-13.178 44.932-6.452 47.376 0 50c6.452 2.624 13.036 5.072 20 5 6.967-.072 13.56-2.341 20-5 6.44-2.659 13.033-4.928 20-5 6.964-.072 13.548 2.376 20 5s13.178 5.068 20.133 5.432" stroke-width="30" stroke="hsla(279, 100%, 50%, 1)" fill="none"/><path d="M-20.133 64.568C-13.178 64.932-6.452 67.376 0 70c6.452 2.624 13.036 5.072 20 5 6.967-.072 13.56-2.341 20-5 6.44-2.659 13.033-4.928 20-5 6.964-.072 13.548 2.376 20 5s13.178 5.068 20.133 5.432" stroke-width="30" stroke="hsla(265, 100%, 50%, 1)" fill="none"/></pattern>
    <linearGradient id="gradient1">
      <stop class="stop1" offset="0%" stop-color="#8f66ff"/>
      <stop class="stop2" offset="100%" stop-color="#3d12ff"/>
    </linearGradient>
  </defs>
  
  <g id="group" transform="translate(0,0) scale(1)">
    <path d="M74.667 21.333C56.994 21.333 42.667 35.660 42.667 53.333C42.667 67.266 51.571 79.120 64.000 83.512V86.678C45.598 91.414 32.000 108.119 32.000 128.000V170.667H117.333V128.000C117.333 113.307 109.897 100.353 98.631 92.695C94.632 89.977 90.144 87.920 85.333 86.680V83.512C97.762 79.120 106.667 67.266 106.667 53.333C106.667 35.660 92.340 21.333 74.667 21.333Z" fill="url(#a)" stroke-width="14" id="filled" stroke="none" stroke-linecap="round" stroke-linejoin="round"/>
    <path d="M42.667 224.000V192.000H106.667V224.000C106.667 229.891 101.891 234.667 96.000 234.667H53.333C47.442 234.667 42.667 229.891 42.667 224.000Z" fill="url(#a)" stroke-width="14" id="filled" stroke="none" stroke-linecap="round" stroke-linejoin="round"/>
    <path d="M145.201 91.189C139.607 93.439 135.273 95.183 129.985 95.807C135.494 105.255 138.667 116.254 138.667 128.000V170.667C138.667 180.144 134.546 188.659 128.000 194.518V202.691C139.033 203.338 147.300 199.725 153.642 196.910L153.749 196.862C160.329 193.942 164.704 192.000 170.667 192.000C177.538 192.000 186.902 194.233 195.254 196.846C199.279 198.107 202.807 199.370 205.326 200.317C206.581 200.789 207.578 201.180 208.250 201.449C208.585 201.582 208.838 201.685 209.003 201.753L209.180 201.825L209.219 201.841C212.511 203.217 216.273 202.857 219.244 200.880C222.214 198.902 224.000 195.569 224.000 192.000V106.667C224.000 102.366 221.418 98.487 217.451 96.827L217.413 96.811L217.339 96.780L217.083 96.675C216.865 96.586 216.555 96.460 216.159 96.302C215.370 95.987 214.240 95.544 212.837 95.016C210.039 93.964 206.122 92.561 201.627 91.154C192.939 88.434 180.970 85.333 170.667 85.333C159.860 85.333 151.827 88.524 145.345 91.131L145.201 91.189Z" fill="url(#a)" stroke-width="14" id="filled" stroke="none" stroke-linecap="round" stroke-linejoin="round"/>
  </g>
</svg>