<svg xmlns="http://www.w3.org/2000/svg" width="48" height="48" viewBox="0 0 256 256" fill="none" id="my-svg">
  <defs><pattern id="a" patternUnits="userSpaceOnUse" width="80" height="80" patternTransform="scale(3.19) rotate(0)"><rect x="0" y="0" width="100%" height="100%" fill="hsla(0,0%,100%,1)"/><path d="M-20.133 4.568C-13.178 4.932-6.452 7.376 0 10c6.452 2.624 13.036 5.072 20 5 6.967-.072 13.56-2.341 20-5 6.44-2.659 13.033-4.928 20-5 6.964-.072 13.548 2.376 20 5s13.178 5.068 20.133 5.432" stroke-width="30" stroke="hsla(189, 100%, 48%, 1)" fill="none"/><path d="M-20.133 24.568C-13.178 24.932-6.452 27.376 0 30c6.452 2.624 13.036 5.072 20 5 6.967-.072 13.56-2.341 20-5 6.44-2.659 13.033-4.928 20-5 6.964-.072 13.548 2.376 20 5s13.178 5.068 20.133 5.432" stroke-width="30" stroke="hsla(208, 100%, 48%, 1)" fill="none"/><path d="M-20.133 44.568C-13.178 44.932-6.452 47.376 0 50c6.452 2.624 13.036 5.072 20 5 6.967-.072 13.56-2.341 20-5 6.44-2.659 13.033-4.928 20-5 6.964-.072 13.548 2.376 20 5s13.178 5.068 20.133 5.432" stroke-width="30" stroke="hsla(279, 100%, 50%, 1)" fill="none"/><path d="M-20.133 64.568C-13.178 64.932-6.452 67.376 0 70c6.452 2.624 13.036 5.072 20 5 6.967-.072 13.56-2.341 20-5 6.44-2.659 13.033-4.928 20-5 6.964-.072 13.548 2.376 20 5s13.178 5.068 20.133 5.432" stroke-width="30" stroke="hsla(265, 100%, 50%, 1)" fill="none"/></pattern>
    <linearGradient id="gradient1">
      <stop class="stop1" offset="0%" stop-color="#8f66ff"/>
      <stop class="stop2" offset="100%" stop-color="#3d12ff"/>
    </linearGradient>
  </defs>
  
  <g id="group" transform="translate(0,0) scale(1)">
    <path d="M154.666 117.333H170.667C194.230 117.333 213.333 136.436 213.333 160.000V192.000C213.333 203.782 203.782 213.333 192.000 213.333H64.000C52.218 213.333 42.667 203.782 42.667 192.000V160.000C42.667 136.436 61.769 117.333 85.333 117.333H101.334" stroke="#fc1100" stroke-width="14" stroke-linecap="round" stroke-linejoin="round" id="primary"/>
    <path d="M170.667 82.526C170.667 110.431 146.963 128.000 128.000 128.000C109.037 128.000 85.333 110.431 85.333 82.526C85.333 54.621 101.818 32.000 128.000 32.000C154.182 32.000 170.667 54.621 170.667 82.526Z" stroke="url(#a)" stroke-width="14" stroke-linecap="round" stroke-linejoin="round" id="secondary"/>
  </g>
</svg>